<?xml version="1.0" encoding="utf-8"?>
<!-- Generator: Adobe Illustrator 21.0.2, SVG Export Plug-In . SVG Version: 6.00 Build 0)  -->
<svg version="1.1" id="Слой_1" xmlns="http://www.w3.org/2000/svg" xmlns:xlink="http://www.w3.org/1999/xlink" x="0px" y="0px"
	 viewBox="0 0 16 16" style="enable-background:new 0 0 16 16;" xml:space="preserve">
<style type="text/css">
	.st0{fill:#7E7F7F;stroke:#2C3E50;stroke-miterlimit:10;}
	.st1{fill:none;stroke:#2C3E50;stroke-miterlimit:10;}
</style>
<g id="Shield_x3F_">
	<g id="XMLID_1_">
		<g>
			<path class="st0" d="M8,14.9L8,14.9L8,14.9L8,14.9z"/>
		</g>
		<g>
			<path class="st1" d="M0.9,3.5c0-1.3,3.2-2.4,7.1-2.4"/>
			<path class="st1" d="M15.1,3.5c0-1.3-3.1-2.4-7-2.4H8"/>
			<path class="st1" d="M8,14.9L8,14.9"/>
			<path class="st1" d="M0.9,3.5c0,6.3,3.1,11.4,7,11.4"/>
			<path class="st1" d="M8,14.9L8,14.9"/>
			<path class="st1" d="M15.1,3.5L15.1,3.5c0,6.3-3.1,11.4-7,11.4H8"/>
		</g>
	</g>
</g>
<line class="st1" x1="0.9" y1="3.5" x2="8" y2="6.7"/>
<line class="st1" x1="15.1" y1="3.5" x2="8" y2="6.7"/>
<line class="st1" x1="8" y1="15.4" x2="8" y2="6.7"/>
</svg>
