<?xml version="1.0" encoding="utf-8"?>
<!-- Generator: Adobe Illustrator 21.0.2, SVG Export Plug-In . SVG Version: 6.00 Build 0)  -->
<svg version="1.1" id="Слой_1" xmlns="http://www.w3.org/2000/svg" xmlns:xlink="http://www.w3.org/1999/xlink" x="0px" y="0px"
	 viewBox="0 0 141.7 141.7" style="enable-background:new 0 0 141.7 141.7;" xml:space="preserve">
<style type="text/css">
	.st0{fill:#3498DB;}
	.st1{fill:#7E7F7F;}
	.st2{fill:#EA1525;}
	.st3{fill:#316DF4;}
	.st4{fill:none;stroke:#FCFCFC;stroke-width:3;stroke-miterlimit:10;}
	.st5{fill:none;stroke:#F7F2F3;stroke-width:3;stroke-miterlimit:10;}
	.st6{fill:none;stroke:#F4EDEE;stroke-width:3;stroke-miterlimit:10;}
	.st7{fill:none;stroke:#FFFFFF;stroke-width:3;stroke-miterlimit:10;}
</style>
<g id="Background">
	<circle id="Background_1_" class="st0" cx="70.9" cy="70.9" r="68.4"/>
</g>
<g id="Shield_x3F_">
	<g id="XMLID_1_">
		<g>
			<path class="st1" d="M70.9,121.1L70.9,121.1c-0.2,0-0.4,0-0.6,0C70.5,121.1,70.7,121.1,70.9,121.1z"/>
			<path class="st2" d="M70.9,59.5L19.3,38.1c0-9.7,23.1-17.5,51.6-17.5c28.2,0.1,50.9,7.9,50.9,17.5c0,0.1,0,0.2,0,0.3L70.9,59.5z"
				/>
			<path class="st3" d="M70.9,59.5l50.9-21.1c-0.1,45.4-22.8,82.1-50.9,82.7V59.5z"/>
			<path class="st1" d="M19.3,38.1l51.6,21.4v61.6c-0.2,0-0.4,0-0.6,0h-0.1C42,120.5,19.3,83.6,19.3,38.1z"/>
		</g>
		<g>
			<path class="st4" d="M19.3,38.1c0-9.7,23.1-17.5,51.6-17.5"/>
			<path class="st5" d="M121.8,38.1c0-9.6-22.7-17.4-50.9-17.5c-0.2,0-0.4,0-0.7,0"/>
			<path class="st6" d="M70.3,121.1c0.2,0,0.4,0,0.6,0"/>
			<path class="st6" d="M19.3,38.1c0,45.5,22.7,82.4,50.9,83"/>
			<path class="st6" d="M70.3,121.1L70.3,121.1"/>
			<path class="st7" d="M121.8,38.1c0,0.1,0,0.2,0,0.3c-0.1,45.4-22.8,82.1-50.9,82.7c-0.2,0-0.4,0-0.6,0"/>
		</g>
	</g>
</g>
</svg>
