<?xml version="1.0" encoding="utf-8"?>
<!-- Generator: Adobe Illustrator 21.0.2, SVG Export Plug-In . SVG Version: 6.00 Build 0)  -->
<svg version="1.1" id="Слой_1" xmlns="http://www.w3.org/2000/svg" xmlns:xlink="http://www.w3.org/1999/xlink" x="0px" y="0px"
	 viewBox="0 0 209.8 209.8" style="enable-background:new 0 0 209.8 209.8;" xml:space="preserve">
<style type="text/css">
	.st0{fill:#27AE60;}
	.st1{fill:#2C3E50;}
	.st2{fill:#34495E;}
	.st3{fill:#FFFFFF;}
	.st4{fill:none;stroke:#FDFEFF;stroke-miterlimit:10;}
</style>
<g id="XMLID_2_">
	<path class="st0" d="M202.3,77c2,6.8,3.2,14,3.7,21.3c-10.2,32.3-32.8,64.4-66.4,89.2C174.7,153.7,196,114.1,202.3,77z"/>
	<path class="st0" d="M6.2,110.9C20.3,65,60.9,33.8,61.9,34.6c1.1,0.9-45.4,39.2-52.4,96.5C7.7,124.6,6.6,117.9,6.2,110.9z"/>
	<path class="st1" d="M61.9,34.6c-1-0.8-41.5,30.4-55.7,76.3c-0.1-2-0.2-4.1-0.2-6.2c0-55.2,44.8-100,100.1-100
		c45.6,0,84.2,30.5,96.2,72.2c-6.3,37.1-27.6,76.7-62.7,110.5c33.6-24.8,56.2-56.8,66.4-89.2c0.1,2.1,0.2,4.3,0.2,6.4
		c0,55.2-44.8,100-100.1,100c-46.1,0-85-31.2-96.6-73.6C16.5,73.8,63,35.5,61.9,34.6z"/>
</g>
<path class="st2" d="M144.2,70.3h-2.6c-1.4,0-2.5-1.1-2.5-2.5v-3.3c0-1.4,1.1-2.5,2.5-2.5h2.6c1.4,0,2.5,1.1,2.5,2.5v3.3
	C146.8,69.2,145.6,70.3,144.2,70.3z"/>
<g id="server">
	<path class="st2" d="M157.6,94.8H52.2c-4,0-7.2-3.2-7.2-7.2V72.4c0-4,3.2-7.2,7.2-7.2h105.4c4,0,7.2,3.2,7.2,7.2v15.2
		C164.8,91.6,161.6,94.8,157.6,94.8z"/>
	<g id="XMLID_3_">
		<path class="st2" d="M53.8,95.4h3.4c-0.5,0-0.9,1-0.9,2.3c0,1.2,0.4,2.3,0.9,2.3h-3.4c0.5,0,0.9-1,0.9-2.3
			C54.7,96.5,54.3,95.4,53.8,95.4z"/>
	</g>
	<g id="XMLID_4_">
		<path class="st2" d="M164.8,107.8V123c0,4-3.2,7.2-7.2,7.2H52.2c-4,0-7.2-3.2-7.2-7.2v-15.2c0-4,3.2-7.2,7.2-7.2h105.4
			C161.6,100.7,164.8,103.9,164.8,107.8z"/>
	</g>
	<rect x="53.8" y="104.8" class="st3" width="7.2" height="3.1"/>
	<rect x="63.3" y="104.8" class="st3" width="7.2" height="3.1"/>
	<rect x="72.6" y="104.8" class="st3" width="7.2" height="3.1"/>
	<rect x="53.8" y="70.3" class="st3" width="7.2" height="3.1"/>
	<rect x="63.3" y="70.3" class="st3" width="7.2" height="3.1"/>
	<rect x="72.6" y="70.3" class="st3" width="7.2" height="3.1"/>
	<g id="XMLID_1_">
		<path class="st2" d="M152.2,95.4h3.4c-0.5,0-0.9,1-0.9,2.3c0,1.2,0.4,2.3,0.9,2.3h-3.4c0.5,0,0.9-1,0.9-2.3
			C153,96.5,152.6,95.4,152.2,95.4z"/>
	</g>
</g>
<path class="st3" d="M144.4,126.4h-2.8c-4.8,0-8.7-3.9-8.7-8.7v-2.8c0-4.8,3.9-8.7,8.7-8.7h2.8c4.8,0,8.7,3.9,8.7,8.7v2.8
	C153.1,122.5,149.2,126.4,144.4,126.4z"/>
<g id="cloud_2_">
	<path class="st0" d="M147.4,119.1h-8.6c-1.4,0-2.5-1.1-2.5-2.5l0,0c0-1.4,1.1-2.5,2.5-2.5h8.6c1.4,0,2.5,1.1,2.5,2.5l0,0
		C149.9,117.9,148.8,119.1,147.4,119.1z"/>
	<path class="st0" d="M140.7,117.6L140.7,117.6c-1.3,0-2.5-1.1-2.5-2.4l0,0c0-1.3,1.1-2.5,2.5-2.5l0,0c1.3,0,2.4,1.1,2.4,2.5l0,0
		C143.2,116.5,142.1,117.6,140.7,117.6z"/>
	<circle class="st0" cx="144.6" cy="114.7" r="3.4"/>
</g>
<g id="sattelite_2_">
	<path class="st2" d="M143,38.6L143,38.6c-0.8,0-1.4,0.7-1.4,1.4v18.9c0,0.8,0.7,1.4,1.4,1.4l0,0c0.8,0,1.4-0.7,1.4-1.4V40
		C144.4,39.1,143.8,38.6,143,38.6z"/>
	<path class="st4" d="M136.2,37.7c0.3-0.4,2.7-3.2,6.7-3.2c4.1,0,6.5,2.9,6.8,3.2"/>
	<path class="st4" d="M133.5,36.1c0.5-0.6,3.7-4.5,9.3-4.5c5.7-0.1,9.2,4,9.5,4.5"/>
</g>
</svg>
