<?xml version="1.0" encoding="utf-8"?>
<!-- Generator: Adobe Illustrator 21.0.2, SVG Export Plug-In . SVG Version: 6.00 Build 0)  -->
<svg version="1.1" id="Слой_1" xmlns="http://www.w3.org/2000/svg" xmlns:xlink="http://www.w3.org/1999/xlink" x="0px" y="0px"
	 viewBox="0 0 198.4 198.4" style="enable-background:new 0 0 198.4 198.4;" xml:space="preserve">
<style type="text/css">
	.st0{fill:#3498DB;}
	.st1{fill:#FFFFFF;}
	.st2{fill:none;stroke:#3498DB;stroke-miterlimit:10;}
</style>
<g id="XMLID_2_">
	<path class="st0" d="M194.8,71.9c2,6.8,3.2,13.9,3.7,21.2c-10.1,32.1-32.6,64-66,88.6C167.4,148.1,188.5,108.8,194.8,71.9z"/>
	<path class="st0" d="M0,105.6C14,60,54.3,29,55.3,29.8c1.1,0.9-45.1,38.9-52.1,95.9C1.5,119.2,0.4,112.5,0,105.6z"/>
	<path class="st1" d="M55.3,29.8C54.3,29,14.1,60,0,105.6c-0.1-2-0.2-4.1-0.2-6.2c0-54.8,44.5-99.3,99.4-99.3
		c45.3,0,83.7,30.3,95.6,71.7c-6.3,36.9-27.4,76.2-62.3,109.8c33.4-24.6,55.8-56.4,66-88.6c0.1,2.1,0.2,4.3,0.2,6.4
		c0,54.8-44.5,99.3-99.4,99.3c-45.8,0-84.4-31-96-73.1C10.2,68.7,56.4,30.7,55.3,29.8z"/>
</g>
<path class="st0" d="M136.3,65.1h-2.6c-1.4,0-2.5-1.1-2.5-2.5v-3.3c0-1.4,1.1-2.5,2.5-2.5h2.6c1.4,0,2.5,1.1,2.5,2.5v3.3
	C138.9,64,137.7,65.1,136.3,65.1z"/>
<g id="server">
	<path class="st0" d="M149.6,89.4H44.9c-4,0-7.2-3.2-7.2-7.2v-15c0-4,3.2-7.2,7.2-7.2h104.7c4,0,7.2,3.2,7.2,7.2v15.1
		C156.8,86.2,153.6,89.4,149.6,89.4z"/>
	<g id="XMLID_3_">
		<path class="st0" d="M46.5,90h3.4c-0.5,0-0.9,1-0.9,2.3c0,1.2,0.4,2.3,0.9,2.3h-3.4c0.5,0,0.9-1,0.9-2.3C47.4,91.1,47,90,46.5,90z
			"/>
	</g>
	<g id="XMLID_4_">
		<path class="st0" d="M156.8,102.3v15.1c0,4-3.2,7.2-7.2,7.2H44.9c-4,0-7.2-3.2-7.2-7.2v-15.1c0-4,3.2-7.2,7.2-7.2h104.7
			C153.6,95.3,156.8,98.5,156.8,102.3z"/>
	</g>
	<rect x="46.5" y="99.4" class="st1" width="7.2" height="3.1"/>
	<rect x="55.9" y="99.4" class="st1" width="7.2" height="3.1"/>
	<rect x="65.2" y="99.4" class="st1" width="7.2" height="3.1"/>
	<rect x="46.5" y="65.1" class="st1" width="7.2" height="3.1"/>
	<rect x="55.9" y="65.1" class="st1" width="7.2" height="3.1"/>
	<rect x="65.2" y="65.1" class="st1" width="7.2" height="3.1"/>
	<g id="XMLID_1_">
		<path class="st0" d="M144.2,90h3.4c-0.5,0-0.9,1-0.9,2.3c0,1.2,0.4,2.3,0.9,2.3h-3.4c0.5,0,0.9-1,0.9-2.3
			C145,91.1,144.6,90,144.2,90z"/>
	</g>
</g>
<path class="st1" d="M136.5,120.8h-2.8c-4.8,0-8.6-3.9-8.6-8.6v-2.8c0-4.8,3.9-8.6,8.6-8.6h2.8c4.8,0,8.6,3.9,8.6,8.6v2.8
	C145.1,116.9,141.3,120.8,136.5,120.8z"/>
<g id="cloud_2_">
	<path class="st0" d="M139.5,113.6H131c-1.4,0-2.5-1.1-2.5-2.5l0,0c0-1.4,1.1-2.5,2.5-2.5h8.5c1.4,0,2.5,1.1,2.5,2.5l0,0
		C142,112.4,140.9,113.6,139.5,113.6z"/>
	<path class="st0" d="M132.8,112.1L132.8,112.1c-1.3,0-2.5-1.1-2.5-2.4l0,0c0-1.3,1.1-2.5,2.5-2.5l0,0c1.3,0,2.4,1.1,2.4,2.5l0,0
		C135.3,111,134.2,112.1,132.8,112.1z"/>
	<circle class="st0" cx="136.7" cy="109.2" r="3.4"/>
</g>
<g id="sattelite_2_">
	<path class="st0" d="M135.1,33.6L135.1,33.6c-0.8,0-1.4,0.7-1.4,1.4v18.8c0,0.8,0.7,1.4,1.4,1.4l0,0c0.8,0,1.4-0.7,1.4-1.4V35
		C136.5,34.1,135.9,33.6,135.1,33.6z"/>
	<path class="st2" d="M128.4,32.7c0.3-0.4,2.7-3.2,6.7-3.2c4.1,0,6.5,2.9,6.8,3.2"/>
	<path class="st2" d="M125.7,31.1c0.5-0.6,3.7-4.5,9.2-4.5c5.7-0.1,9.1,4,9.4,4.5"/>
</g>
</svg>
