<?xml version="1.0" encoding="utf-8"?>
<!-- Generator: Adobe Illustrator 21.0.2, SVG Export Plug-In . SVG Version: 6.00 Build 0)  -->
<svg version="1.1" id="Слой_1" xmlns="http://www.w3.org/2000/svg" xmlns:xlink="http://www.w3.org/1999/xlink" x="0px" y="0px"
	 viewBox="0 0 16 16" style="enable-background:new 0 0 16 16;" xml:space="preserve">
<style type="text/css">
	.st0{fill-rule:evenodd;clip-rule:evenodd;fill:#3498DB;}
	.st1{fill:#3498DB;}
</style>
<g id="XMLID_1_">
	<path class="st0" d="M12.8,10.6c0.1,1.2-0.8,2.1-1.9,2.1H5.1c-1.1,0-2-0.9-2-2V4.9c0-1.1,0.9-2,2-2h5.7c1.1,0,2,0.9,2,2V10.6z
		 M11.9,10.5V5.1c0-0.7-0.5-1.2-1.2-1.2H5.3c-0.7,0-1.2,0.5-1.2,1.2v5.4c0,0.7,0.5,1.2,1.2,1.2h5.4C11.4,11.7,11.9,11.2,11.9,10.5z"
		/>
	<path class="st1" d="M11.4,6v3.7c-0.1,0.8-0.7,1.5-1.6,1.5H6.2c-0.8,0-1.5-0.7-1.5-1.5V6c0-0.8,0.7-1.5,1.5-1.5h3.7
		C10.7,4.5,11.4,5.2,11.4,6z"/>
</g>
<path class="st1" d="M6,2.7L6,2.7c-0.2,0-0.3-0.1-0.3-0.3V0.6c0-0.2,0.1-0.3,0.3-0.3l0,0c0.2,0,0.3,0.1,0.3,0.3v1.8
	C6.3,2.6,6.2,2.7,6,2.7z"/>
<path class="st1" d="M8,2.7L8,2.7c-0.2,0-0.3-0.1-0.3-0.3V0.6c0-0.2,0.1-0.3,0.3-0.3l0,0c0.2,0,0.3,0.1,0.3,0.3v1.8
	C8.3,2.6,8.2,2.7,8,2.7z"/>
<path class="st1" d="M9.9,2.7L9.9,2.7c-0.2,0-0.3-0.1-0.3-0.3V0.6c0-0.2,0.1-0.3,0.3-0.3l0,0c0.2,0,0.3,0.1,0.3,0.3v1.8
	C10.2,2.6,10.1,2.7,9.9,2.7z"/>
<path class="st1" d="M6,15.3L6,15.3c-0.2,0-0.3-0.1-0.3-0.3v-1.8c0-0.2,0.1-0.3,0.3-0.3l0,0c0.2,0,0.3,0.1,0.3,0.3V15
	C6.4,15.2,6.2,15.3,6,15.3z"/>
<path class="st1" d="M8.1,15.3L8.1,15.3c-0.2,0-0.3-0.1-0.3-0.3v-1.8c0-0.2,0.1-0.3,0.3-0.3l0,0c0.2,0,0.3,0.1,0.3,0.3V15
	C8.4,15.2,8.2,15.3,8.1,15.3z"/>
<path class="st1" d="M10,15.3L10,15.3c-0.2,0-0.3-0.1-0.3-0.3v-1.8c0-0.2,0.1-0.3,0.3-0.3l0,0c0.2,0,0.3,0.1,0.3,0.3V15
	C10.3,15.2,10.1,15.3,10,15.3z"/>
<path class="st1" d="M0.3,9.8L0.3,9.8c0,0.2,0.1,0.3,0.3,0.3h1.8c0.2,0,0.3-0.1,0.3-0.3l0,0c0-0.2-0.1-0.3-0.3-0.3H0.7
	C0.5,9.5,0.3,9.6,0.3,9.8z"/>
<path class="st1" d="M0.3,7.8L0.3,7.8c0,0.2,0.1,0.3,0.3,0.3h1.8c0.2,0,0.3-0.1,0.3-0.3l0,0c0-0.2-0.1-0.3-0.3-0.3H0.7
	C0.5,7.4,0.3,7.6,0.3,7.8z"/>
<path class="st1" d="M0.3,5.8L0.3,5.8c0,0.2,0.1,0.3,0.3,0.3h1.8c0.2,0,0.3-0.1,0.3-0.3l0,0c0-0.2-0.1-0.3-0.3-0.3H0.7
	C0.5,5.5,0.3,5.7,0.3,5.8z"/>
<path class="st1" d="M13.2,9.7L13.2,9.7c0,0.2,0.1,0.3,0.3,0.3h1.8c0.2,0,0.3-0.1,0.3-0.3l0,0c0-0.2-0.1-0.3-0.3-0.3h-1.8
	C13.4,9.4,13.2,9.5,13.2,9.7z"/>
<path class="st1" d="M13.2,7.7L13.2,7.7c0,0.2,0.1,0.3,0.3,0.3h1.8c0.2,0,0.3-0.1,0.3-0.3l0,0c0-0.2-0.1-0.3-0.3-0.3h-1.8
	C13.4,7.4,13.2,7.5,13.2,7.7z"/>
<path class="st1" d="M13.2,5.8L13.2,5.8c0,0.2,0.1,0.3,0.3,0.3h1.8c0.2,0,0.3-0.1,0.3-0.3l0,0c0-0.2-0.1-0.3-0.3-0.3h-1.8
	C13.4,5.5,13.2,5.6,13.2,5.8z"/>
</svg>
